<?xml version="1.0" encoding="UTF-8" standalone="no"?><svg xmlns="http://www.w3.org/2000/svg" xmlns:xlink="http://www.w3.org/1999/xlink" contentScriptType="application/ecmascript" contentStyleType="text/css" height="631px" preserveAspectRatio="none" style="width:1188px;height:631px;" version="1.1" viewBox="0 0 1188 631" width="1188px" zoomAndPan="magnify"><defs><filter height="300%" id="f17p1go4qq13mb" width="300%" x="-1" y="-1"><feGaussianBlur result="blurOut" stdDeviation="2.0"/><feColorMatrix in="blurOut" result="blurOut2" type="matrix" values="0 0 0 0 0 0 0 0 0 0 0 0 0 0 0 0 0 0 .4 0"/><feOffset dx="4.0" dy="4.0" in="blurOut2" result="blurOut3"/><feBlend in="SourceGraphic" in2="blurOut3" mode="normal"/></filter></defs><g><text fill="#000000" font-family="sans-serif" font-size="18" lengthAdjust="spacingAndGlyphs" textLength="413" x="391.5" y="19.2419">Deployment Diagram — Online Bookstore (AWS)</text><!--MD5=[88656e78e5bedad418341b6ececa151e]
cluster AWS--><rect fill="#DAE8FC" filter="url(#f17p1go4qq13mb)" height="439" style="stroke: #6C8EBF; stroke-width: 1.5;" width="825" x="211.5" y="181.5158"/><text fill="#000000" font-family="sans-serif" font-size="11" font-weight="bold" lengthAdjust="spacingAndGlyphs" textLength="25" x="611.5" y="195.2748">AWS</text><!--MD5=[95e09e3614b397eb19713970f311e3ad]
cluster ECS Fargate--><polygon fill="#F8CECC" filter="url(#f17p1go4qq13mb)" points="475.5,354.5158,485.5,344.5158,785.5,344.5158,785.5,443.5158,775.5,453.5158,475.5,453.5158,475.5,354.5158" style="stroke: #B85450; stroke-width: 1.5;"/><line style="stroke: #B85450; stroke-width: 1.5;" x1="775.5" x2="784.5" y1="354.5158" y2="345.5158"/><line style="stroke: #B85450; stroke-width: 1.5;" x1="475.5" x2="775.5" y1="354.5158" y2="354.5158"/><line style="stroke: #B85450; stroke-width: 1.5;" x1="775.5" x2="775.5" y1="354.5158" y2="453.5158"/><text fill="#000000" font-family="sans-serif" font-size="14" font-weight="bold" lengthAdjust="spacingAndGlyphs" textLength="82" x="585.5" y="372.4818">ECS Fargate</text><!--MD5=[8fb4f905147ca31c25b1e567ee08a5b2]
entity cdn--><rect fill="#DAE8FC" filter="url(#f17p1go4qq13mb)" height="64.9457" style="stroke: #6C8EBF; stroke-width: 1.5;" width="108" x="293.5" y="214.5158"/><text fill="#000000" font-family="sans-serif" font-size="11" lengthAdjust="spacingAndGlyphs" textLength="84" x="303.5" y="236.2748">CloudFront + S3</text><text fill="#000000" font-family="sans-serif" font-size="11" lengthAdjust="spacingAndGlyphs" textLength="31" x="303.5" y="251.2566">[CDN]</text><text fill="#000000" font-family="sans-serif" font-size="11" lengthAdjust="spacingAndGlyphs" textLength="88" x="303.5" y="266.2385">Serves React SPA</text><!--MD5=[e9b9a1fb5c2eb8b368965da252d1b6d4]
entity alb--><rect fill="#DAE8FC" filter="url(#f17p1go4qq13mb)" height="64.9457" style="stroke: #6C8EBF; stroke-width: 1.5;" width="103" x="450" y="214.5158"/><text fill="#000000" font-family="sans-serif" font-size="11" lengthAdjust="spacingAndGlyphs" textLength="20" x="460" y="236.2748">ALB</text><text fill="#000000" font-family="sans-serif" font-size="11" lengthAdjust="spacingAndGlyphs" textLength="82" x="460" y="251.2566">[Load Balancer]</text><text fill="#000000" font-family="sans-serif" font-size="11" lengthAdjust="spacingAndGlyphs" textLength="83" x="460" y="266.2385">TLS termination</text><!--MD5=[78922e3f719f32bf869a7a66bdadb0f4]
entity rds--><path d="M505.5,528.5158 C505.5,518.5158 569.5,518.5158 569.5,518.5158 C569.5,518.5158 633.5,518.5158 633.5,528.5158 L633.5,594.7196 C633.5,604.7196 569.5,604.7196 569.5,604.7196 C569.5,604.7196 505.5,604.7196 505.5,594.7196 L505.5,528.5158 " fill="#FFF2CC" filter="url(#f17p1go4qq13mb)" style="stroke: #D6B656; stroke-width: 1.5;"/><path d="M505.5,528.5158 C505.5,538.5158 569.5,538.5158 569.5,538.5158 C569.5,538.5158 633.5,538.5158 633.5,528.5158 " fill="none" style="stroke: #D6B656; stroke-width: 1.5;"/><text fill="#000000" font-family="sans-serif" font-size="14" lengthAdjust="spacingAndGlyphs" textLength="108" x="515.5" y="557.4818">RDS PostgreSQL</text><text fill="#000000" font-family="sans-serif" font-size="14" lengthAdjust="spacingAndGlyphs" textLength="107" x="515.5" y="576.5497">[PostgreSQL 16]</text><text fill="#000000" font-family="sans-serif" font-size="14" lengthAdjust="spacingAndGlyphs" textLength="57" x="515.5" y="595.6176">Multi-AZ</text><!--MD5=[4d6af451f07aedbb67deab702e3f4cad]
entity elasticache--><path d="M754.5,528.5158 C754.5,518.5158 814.5,518.5158 814.5,518.5158 C814.5,518.5158 874.5,518.5158 874.5,528.5158 L874.5,594.7196 C874.5,604.7196 814.5,604.7196 814.5,604.7196 C814.5,604.7196 754.5,604.7196 754.5,594.7196 L754.5,528.5158 " fill="#FFF2CC" filter="url(#f17p1go4qq13mb)" style="stroke: #D6B656; stroke-width: 1.5;"/><path d="M754.5,528.5158 C754.5,538.5158 814.5,538.5158 814.5,538.5158 C814.5,538.5158 874.5,538.5158 874.5,528.5158 " fill="none" style="stroke: #D6B656; stroke-width: 1.5;"/><text fill="#000000" font-family="sans-serif" font-size="14" lengthAdjust="spacingAndGlyphs" textLength="77" x="764.5" y="557.4818">ElastiCache</text><text fill="#000000" font-family="sans-serif" font-size="14" lengthAdjust="spacingAndGlyphs" textLength="59" x="764.5" y="576.5497">[Redis 7]</text><text fill="#000000" font-family="sans-serif" font-size="14" lengthAdjust="spacingAndGlyphs" textLength="100" x="764.5" y="595.6176">Cache + queue</text><!--MD5=[1d99784d9659d57dbc1c283c3c7f8c82]
entity s3images--><rect fill="#DAE8FC" filter="url(#f17p1go4qq13mb)" height="49.9638" style="stroke: #6C8EBF; stroke-width: 1.5;" width="78" x="392.5" y="536.5158"/><text fill="#000000" font-family="sans-serif" font-size="11" lengthAdjust="spacingAndGlyphs" textLength="58" x="402.5" y="558.2748">S3 (images)</text><text fill="#000000" font-family="sans-serif" font-size="11" lengthAdjust="spacingAndGlyphs" textLength="46" x="402.5" y="573.2566">[AWS S3]</text><!--MD5=[192e1387d56ac353277bfe9f6fdb8154]
entity secrets--><rect fill="#DAE8FC" filter="url(#f17p1go4qq13mb)" height="49.9638" style="stroke: #6C8EBF; stroke-width: 1.5;" width="107" x="227" y="536.5158"/><text fill="#000000" font-family="sans-serif" font-size="11" lengthAdjust="spacingAndGlyphs" textLength="87" x="237" y="558.2748">Secrets Manager</text><text fill="#000000" font-family="sans-serif" font-size="11" lengthAdjust="spacingAndGlyphs" textLength="31" x="237" y="573.2566">[AWS]</text><!--MD5=[e2307af040e3f87d22824e7603ca28ec]
entity api--><rect fill="#DAE8FC" filter="url(#f17p1go4qq13mb)" height="49.9638" style="stroke: #6C8EBF; stroke-width: 1.5;" width="119" x="492" y="387.5158"/><text fill="#000000" font-family="sans-serif" font-size="11" lengthAdjust="spacingAndGlyphs" textLength="55" x="502" y="409.2748">API Server</text><text fill="#000000" font-family="sans-serif" font-size="11" lengthAdjust="spacingAndGlyphs" textLength="99" x="502" y="424.2566">[Node.js + Express]</text><!--MD5=[d37e7b6e4e01e9dcb388f1477493d265]
entity worker--><rect fill="#DAE8FC" filter="url(#f17p1go4qq13mb)" height="49.9638" style="stroke: #6C8EBF; stroke-width: 1.5;" width="123" x="646" y="387.5158"/><text fill="#000000" font-family="sans-serif" font-size="11" lengthAdjust="spacingAndGlyphs" textLength="103" x="656" y="409.2748">Notification Worker</text><text fill="#000000" font-family="sans-serif" font-size="11" lengthAdjust="spacingAndGlyphs" textLength="79" x="656" y="424.2566">[Node.js + Bull]</text><!--MD5=[92848cbaf65985a669855153c5362c37]
entity customer--><ellipse cx="424.5" cy="42.0158" fill="#D5E8D4" filter="url(#f17p1go4qq13mb)" rx="8" ry="8" style="stroke: #82B366; stroke-width: 1.5;"/><path d="M424.5,50.0158 L424.5,77.0158 M411.5,58.0158 L437.5,58.0158 M424.5,77.0158 L411.5,92.0158 M424.5,77.0158 L437.5,92.0158 " fill="none" filter="url(#f17p1go4qq13mb)" style="stroke: #82B366; stroke-width: 1.5;"/><text fill="#000000" font-family="sans-serif" font-size="14" lengthAdjust="spacingAndGlyphs" textLength="65" x="392" y="112.4818">Customer</text><!--MD5=[a29fe3b73bd7c5d5e80e6b5e6b2bebf6]
entity stripe--><rect fill="#DAE8FC" filter="url(#f17p1go4qq13mb)" height="49.9638" style="stroke: #6C8EBF; stroke-width: 1.5;" width="71" x="6" y="536.5158"/><text fill="#000000" font-family="sans-serif" font-size="11" lengthAdjust="spacingAndGlyphs" textLength="31" x="16" y="558.2748">Stripe</text><text fill="#000000" font-family="sans-serif" font-size="11" lengthAdjust="spacingAndGlyphs" textLength="51" x="16" y="573.2566">[External]</text><!--MD5=[c3b7859e7187043933d1a0430eb79138]
entity sendgrid--><rect fill="#DAE8FC" filter="url(#f17p1go4qq13mb)" height="49.9638" style="stroke: #6C8EBF; stroke-width: 1.5;" width="71" x="1053" y="536.5158"/><text fill="#000000" font-family="sans-serif" font-size="11" lengthAdjust="spacingAndGlyphs" textLength="49" x="1063" y="558.2748">SendGrid</text><text fill="#000000" font-family="sans-serif" font-size="11" lengthAdjust="spacingAndGlyphs" textLength="51" x="1063" y="573.2566">[External]</text><!--MD5=[86b88fd49fd94a2c83fdf6e8ee4655e7]
link customer to cdn--><path d="M391.81,94.7558 C374.25,107.0858 354.25,124.8358 344.5,146.5158 C335.82,165.8258 336.13,189.4358 338.82,208.8058 " fill="none" id="customer-&gt;cdn" style="stroke: #A80036; stroke-width: 1.0;"/><polygon fill="#A80036" points="339.64,214.1558,342.2312,204.654,338.8829,209.2135,334.3234,205.8653,339.64,214.1558" style="stroke: #A80036; stroke-width: 1.0;"/><text fill="#000000" font-family="sans-serif" font-size="13" lengthAdjust="spacingAndGlyphs" textLength="112" x="345.5" y="161.4129">Loads SPA [HTTPS]</text><!--MD5=[6f9e1d358b6024f7deb6586b5ce035cc]
link customer to alb--><path d="M447.64,116.7758 C452.75,126.4258 457.99,136.7458 462.5,146.5158 C471.96,167.0158 481.24,190.5058 488.37,209.5158 " fill="none" id="customer-&gt;alb" style="stroke: #A80036; stroke-width: 1.0;"/><polygon fill="#A80036" points="490.14,214.2458,490.7515,204.416,488.3969,209.5595,483.2534,207.2049,490.14,214.2458" style="stroke: #A80036; stroke-width: 1.0;"/><text fill="#000000" font-family="sans-serif" font-size="13" lengthAdjust="spacingAndGlyphs" textLength="125" x="471.5" y="161.4129">API requests [HTTPS]</text><!--MD5=[a4cbe20ab4f5dc3ca57b8351d822965e]
link alb to api--><path d="M511.14,279.5358 C520.23,309.2758 533.76,353.4958 542.6,382.4058 " fill="none" id="alb-&gt;api" style="stroke: #A80036; stroke-width: 1.0;"/><polygon fill="#A80036" points="544.09,387.2658,545.2951,377.491,542.6336,382.4826,537.642,379.8212,544.09,387.2658" style="stroke: #A80036; stroke-width: 1.0;"/><text fill="#000000" font-family="sans-serif" font-size="13" lengthAdjust="spacingAndGlyphs" textLength="99" x="525.5" y="324.4129">Forwards [HTTP]</text><!--MD5=[558f999238bb30105df0b1ffdb2ba4f6]
link api to rds--><path d="M554.47,437.7858 C556.98,458.2758 560.65,488.2158 563.73,513.3858 " fill="none" id="api-&gt;rds" style="stroke: #A80036; stroke-width: 1.0;"/><polygon fill="#A80036" points="564.34,518.3558,567.2061,508.9333,563.7268,513.3936,559.2665,509.9143,564.34,518.3558" style="stroke: #A80036; stroke-width: 1.0;"/><text fill="#000000" font-family="sans-serif" font-size="13" lengthAdjust="spacingAndGlyphs" textLength="111" x="561.5" y="484.4129">Reads/writes [TCP]</text><!--MD5=[3d5c74a32978a009a9b43c88e2f4b38c]
link api to elasticache--><path d="M583.69,437.6858 C596.94,446.5058 612.84,455.7358 628.5,461.5158 C650.85,469.7658 659.33,460.7958 681.5,469.5158 C689.56,472.6858 720.98,494.1058 751.25,515.3658 " fill="none" id="api-&gt;elasticache" style="stroke: #A80036; stroke-width: 1.0;"/><polygon fill="#A80036" points="755.71,518.5058,750.6466,510.0582,751.6192,515.6309,746.0466,516.6035,755.71,518.5058" style="stroke: #A80036; stroke-width: 1.0;"/><text fill="#000000" font-family="sans-serif" font-size="13" lengthAdjust="spacingAndGlyphs" textLength="136" x="711.5" y="484.4129">Cache + enqueue [TCP]</text><!--MD5=[7a74ca7ac049024ba9914339b1641b7d]
link api to s3images--><path d="M491.88,437.4158 C477.51,445.6758 463.45,456.2758 453.5,469.5158 C440.2,487.2158 434.83,511.8358 432.71,531.0058 " fill="none" id="api-&gt;s3images" style="stroke: #A80036; stroke-width: 1.0;"/><polygon fill="#A80036" points="432.19,536.2558,437.0462,527.6874,432.6762,531.2795,429.0841,526.9095,432.19,536.2558" style="stroke: #A80036; stroke-width: 1.0;"/><text fill="#000000" font-family="sans-serif" font-size="13" lengthAdjust="spacingAndGlyphs" textLength="94" x="454.5" y="484.4129">Images [HTTPS]</text><!--MD5=[eebddc328c59e5f8a1073deeb50a7d5f]
link api to stripe--><path d="M491.73,420.6458 C411.11,430.2258 263.03,447.6258 136.5,461.5158 C119.4,463.3958 72.21,457.9258 59.5,469.5158 C42.72,484.8258 38.96,510.8858 38.98,531.2058 " fill="none" id="api-&gt;stripe" style="stroke: #A80036; stroke-width: 1.0;"/><polygon fill="#A80036" points="39.06,536.2458,42.931,527.1896,38.9886,531.2464,34.9318,527.3039,39.06,536.2458" style="stroke: #A80036; stroke-width: 1.0;"/><text fill="#000000" font-family="sans-serif" font-size="13" lengthAdjust="spacingAndGlyphs" textLength="150" x="60.5" y="484.4129">Payment Intents [HTTPS]</text><!--MD5=[50916b0d6e3c2934fc5d2d5c3afdecfb]
link api to secrets--><path d="M491.98,420.0258 C427.98,428.2058 331.85,444.3058 305.5,469.5158 C288.98,485.3158 283.04,510.9258 281.06,530.9558 " fill="none" id="api-&gt;secrets" style="stroke: #A80036; stroke-width: 1.0;"/><polygon fill="#A80036" points="280.62,536.1858,285.3761,527.5615,281.0482,531.2042,277.4055,526.8763,280.62,536.1858" style="stroke: #A80036; stroke-width: 1.0;"/><text fill="#000000" font-family="sans-serif" font-size="13" lengthAdjust="spacingAndGlyphs" textLength="128" x="306.5" y="484.4129">Fetch secrets [HTTPS]</text><!--MD5=[82b86313b515422194d6d07b09a45849]
link worker to elasticache--><path d="M769.22,419.4158 C802.11,426.0558 839.92,440.0758 860.5,469.5158 C870.06,483.1958 866.34,499.1358 857.83,513.8158 " fill="none" id="worker-&gt;elasticache" style="stroke: #A80036; stroke-width: 1.0;"/><polygon fill="#A80036" points="855.05,518.3258,863.1818,512.7695,857.6769,514.0715,856.3748,508.5665,855.05,518.3258" style="stroke: #A80036; stroke-width: 1.0;"/><text fill="#000000" font-family="sans-serif" font-size="13" lengthAdjust="spacingAndGlyphs" textLength="119" x="866.5" y="484.4129">Consume jobs [TCP]</text><!--MD5=[8bbe7cf37dc78a7706430538728e8856]
link worker to sendgrid--><path d="M769.1,417.7458 C852.09,424.4858 994.3,440.0158 1036.5,469.5158 C1057.76,484.3758 1071.47,510.9158 1079.44,531.5058 " fill="none" id="worker-&gt;sendgrid" style="stroke: #A80036; stroke-width: 1.0;"/><polygon fill="#A80036" points="1081.25,536.3358,1081.8352,526.5044,1079.4944,531.6542,1074.3446,529.3134,1081.25,536.3358" style="stroke: #A80036; stroke-width: 1.0;"/><text fill="#000000" font-family="sans-serif" font-size="13" lengthAdjust="spacingAndGlyphs" textLength="121" x="1055.5" y="484.4129">Send emails [HTTPS]</text><!--MD5=[5a017696d5d2cf1b0cc7da6ad68fd53a]
link stripe to alb--><path d="M34.08,536.1558 C29.66,516.6258 27.04,489.3058 39.5,469.5158 C62.99,432.2058 327.17,319.8458 445.16,271.0458 " fill="none" id="stripe-&gt;alb" style="stroke: #A80036; stroke-width: 1.0;"/><polygon fill="#A80036" points="449.99,269.0558,440.1452,268.7732,445.3645,270.9546,443.1832,276.1739,449.99,269.0558" style="stroke: #A80036; stroke-width: 1.0;"/><text fill="#000000" font-family="sans-serif" font-size="13" lengthAdjust="spacingAndGlyphs" textLength="114" x="289.5" y="417.9129">Webhooks [HTTPS]</text><!--MD5=[2595777d1468cb5a5857adf93aec079d]
@startuml 07-deployment
title Deployment Diagram — Online Bookstore (AWS)

skinparam rectangle {
  BackgroundColor #dae8fc
  BorderColor #6c8ebf
  FontSize 11
}
skinparam database {
  BackgroundColor #fff2cc
  BorderColor #d6b656
}
skinparam actor {
  BackgroundColor #d5e8d4
  BorderColor #82b366
}
skinparam node {
  BackgroundColor #f8cecc
  BorderColor #b85450
}

actor "Customer" as customer

rectangle "AWS" {
  rectangle "CloudFront + S3\n[CDN]\nServes React SPA" as cdn
  rectangle "ALB\n[Load Balancer]\nTLS termination" as alb

  node "ECS Fargate" {
    rectangle "API Server\n[Node.js + Express]" as api
    rectangle "Notification Worker\n[Node.js + Bull]" as worker
  }

  database "RDS PostgreSQL\n[PostgreSQL 16]\nMulti-AZ" as rds
  database "ElastiCache\n[Redis 7]\nCache + queue" as elasticache
  rectangle "S3 (images)\n[AWS S3]" as s3images
  rectangle "Secrets Manager\n[AWS]" as secrets
}

rectangle "Stripe\n[External]" as stripe
rectangle "SendGrid\n[External]" as sendgrid

customer - -> cdn : "Loads SPA [HTTPS]"
customer - -> alb : "API requests [HTTPS]"
alb - -> api : "Forwards [HTTP]"
api - -> rds : "Reads/writes [TCP]"
api - -> elasticache : "Cache + enqueue [TCP]"
api - -> s3images : "Images [HTTPS]"
api - -> stripe : "Payment Intents [HTTPS]"
api - -> secrets : "Fetch secrets [HTTPS]"
worker - -> elasticache : "Consume jobs [TCP]"
worker - -> sendgrid : "Send emails [HTTPS]"
stripe - -> alb : "Webhooks [HTTPS]"

@enduml

PlantUML version 1.2020.02(Sun Mar 01 11:22:07 CET 2020)
(GPL source distribution)
Java Runtime: OpenJDK Runtime Environment
JVM: OpenJDK 64-Bit Server VM
Java Version: 21.0.10+7-Ubuntu-124.04
Operating System: Linux
Default Encoding: UTF-8
Language: en
Country: US
--></g></svg>