<?xml version="1.0" encoding="UTF-8" standalone="no"?><svg xmlns="http://www.w3.org/2000/svg" xmlns:xlink="http://www.w3.org/1999/xlink" contentScriptType="application/ecmascript" contentStyleType="text/css" height="575px" preserveAspectRatio="none" style="width:714px;height:575px;" version="1.1" viewBox="0 0 714 575" width="714px" zoomAndPan="magnify"><defs><filter height="300%" id="f1swtbaat0jji2" width="300%" x="-1" y="-1"><feGaussianBlur result="blurOut" stdDeviation="2.0"/><feColorMatrix in="blurOut" result="blurOut2" type="matrix" values="0 0 0 0 0 0 0 0 0 0 0 0 0 0 0 0 0 0 .4 0"/><feOffset dx="4.0" dy="4.0" in="blurOut2" result="blurOut3"/><feBlend in="SourceGraphic" in2="blurOut3" mode="normal"/></filter></defs><g><text fill="#000000" font-family="sans-serif" font-size="18" lengthAdjust="spacingAndGlyphs" textLength="293" x="214" y="19.2419">Component Diagram — API Server</text><!--MD5=[b4c2c164f16c66d95a4b1c04e89f6f63]
cluster API Server (Node.js + Express)--><rect fill="#DAE8FC" filter="url(#f1swtbaat0jji2)" height="402" style="stroke: #6C8EBF; stroke-width: 1.5;" width="545" x="22" y="48.5158"/><text fill="#000000" font-family="sans-serif" font-size="11" font-weight="bold" lengthAdjust="spacingAndGlyphs" textLength="163" x="213" y="62.2748">API Server (Node.js + Express)</text><!--MD5=[5f2f9dbbee692058d60489180693f774]
entity users--><rect fill="#DAE8FC" filter="url(#f1swtbaat0jji2)" height="64.9457" style="stroke: #6C8EBF; stroke-width: 1.5;" width="142" x="218" y="225.5158"/><text fill="#000000" font-family="sans-serif" font-size="11" lengthAdjust="spacingAndGlyphs" textLength="111" x="228" y="247.2748">Users Router+Service</text><text fill="#000000" font-family="sans-serif" font-size="11" lengthAdjust="spacingAndGlyphs" textLength="87" x="228" y="262.2566">[Express Router]</text><text fill="#000000" font-family="sans-serif" font-size="11" lengthAdjust="spacingAndGlyphs" textLength="122" x="228" y="277.2385">Registration, login, JWT</text><!--MD5=[c9cea0ee923861e4bd87e30fcc0aab3d]
entity catalog--><rect fill="#DAE8FC" filter="url(#f1swtbaat0jji2)" height="64.9457" style="stroke: #6C8EBF; stroke-width: 1.5;" width="155" x="395.5" y="225.5158"/><text fill="#000000" font-family="sans-serif" font-size="11" lengthAdjust="spacingAndGlyphs" textLength="122" x="405.5" y="247.2748">Catalog Router+Service</text><text fill="#000000" font-family="sans-serif" font-size="11" lengthAdjust="spacingAndGlyphs" textLength="87" x="405.5" y="262.2566">[Express Router]</text><text fill="#000000" font-family="sans-serif" font-size="11" lengthAdjust="spacingAndGlyphs" textLength="135" x="405.5" y="277.2385">Book CRUD, search, cache</text><!--MD5=[1f8d078c60165442005a4c1581b11ffa]
entity orders--><rect fill="#DAE8FC" filter="url(#f1swtbaat0jji2)" height="64.9457" style="stroke: #6C8EBF; stroke-width: 1.5;" width="139" x="43.5" y="225.5158"/><text fill="#000000" font-family="sans-serif" font-size="11" lengthAdjust="spacingAndGlyphs" textLength="119" x="53.5" y="247.2748">Orders Router+Service</text><text fill="#000000" font-family="sans-serif" font-size="11" lengthAdjust="spacingAndGlyphs" textLength="87" x="53.5" y="262.2566">[Express Router]</text><text fill="#000000" font-family="sans-serif" font-size="11" lengthAdjust="spacingAndGlyphs" textLength="102" x="53.5" y="277.2385">Cart, order lifecycle</text><!--MD5=[b9b1bc63773a118685e9b5feeb56bf85]
entity payment--><rect fill="#DAE8FC" filter="url(#f1swtbaat0jji2)" height="64.9457" style="stroke: #6C8EBF; stroke-width: 1.5;" width="148" x="389" y="81.5158"/><text fill="#000000" font-family="sans-serif" font-size="11" lengthAdjust="spacingAndGlyphs" textLength="128" x="399" y="103.2748">Payment Router+Service</text><text fill="#000000" font-family="sans-serif" font-size="11" lengthAdjust="spacingAndGlyphs" textLength="87" x="399" y="118.2566">[Express Router]</text><text fill="#000000" font-family="sans-serif" font-size="11" lengthAdjust="spacingAndGlyphs" textLength="93" x="399" y="133.2385">Stripe integration</text><!--MD5=[e6980103a72f7c06897718b1405d9217]
entity notif--><rect fill="#DAE8FC" filter="url(#f1swtbaat0jji2)" height="64.9457" style="stroke: #6C8EBF; stroke-width: 1.5;" width="127" x="68.5" y="369.5158"/><text fill="#000000" font-family="sans-serif" font-size="11" lengthAdjust="spacingAndGlyphs" textLength="106" x="78.5" y="391.2748">Notifications Service</text><text fill="#000000" font-family="sans-serif" font-size="11" lengthAdjust="spacingAndGlyphs" textLength="80" x="78.5" y="406.2566">[Bull Producer]</text><text fill="#000000" font-family="sans-serif" font-size="11" lengthAdjust="spacingAndGlyphs" textLength="107" x="78.5" y="421.2385">Enqueues email jobs</text><!--MD5=[e29493a8775effcafa538aa0485107d1]
entity auth--><rect fill="#DAE8FC" filter="url(#f1swtbaat0jji2)" height="64.9457" style="stroke: #6C8EBF; stroke-width: 1.5;" width="133" x="217.5" y="81.5158"/><text fill="#000000" font-family="sans-serif" font-size="11" lengthAdjust="spacingAndGlyphs" textLength="90" x="227.5" y="103.2748">Auth Middleware</text><text fill="#000000" font-family="sans-serif" font-size="11" lengthAdjust="spacingAndGlyphs" textLength="113" x="227.5" y="118.2566">[Express Middleware]</text><text fill="#000000" font-family="sans-serif" font-size="11" lengthAdjust="spacingAndGlyphs" textLength="74" x="227.5" y="133.2385">JWT validation</text><!--MD5=[ffd9c204d205bc9185ab1a43c6f1aff1]
entity errors--><rect fill="#DAE8FC" filter="url(#f1swtbaat0jji2)" height="64.9457" style="stroke: #6C8EBF; stroke-width: 1.5;" width="133" x="42.5" y="81.5158"/><text fill="#000000" font-family="sans-serif" font-size="11" lengthAdjust="spacingAndGlyphs" textLength="73" x="52.5" y="103.2748">Error Handler</text><text fill="#000000" font-family="sans-serif" font-size="11" lengthAdjust="spacingAndGlyphs" textLength="113" x="52.5" y="118.2566">[Express Middleware]</text><text fill="#000000" font-family="sans-serif" font-size="11" lengthAdjust="spacingAndGlyphs" textLength="95" x="52.5" y="133.2385">Centralised errors</text><!--MD5=[4c59b95bf93d0af09a528c68447d6ce6]
entity dbclient--><rect fill="#DAE8FC" filter="url(#f1swtbaat0jji2)" height="64.9457" style="stroke: #6C8EBF; stroke-width: 1.5;" width="145" x="260.5" y="369.5158"/><text fill="#000000" font-family="sans-serif" font-size="11" lengthAdjust="spacingAndGlyphs" textLength="48" x="270.5" y="391.2748">DB Client</text><text fill="#000000" font-family="sans-serif" font-size="11" lengthAdjust="spacingAndGlyphs" textLength="85" x="270.5" y="406.2566">[node-postgres]</text><text fill="#000000" font-family="sans-serif" font-size="11" lengthAdjust="spacingAndGlyphs" textLength="125" x="270.5" y="421.2385">Shared connection pool</text><!--MD5=[7468467f3b6b392f1d176d828c753b77]
entity db--><path d="M284.5,525.5158 C284.5,515.5158 333,515.5158 333,515.5158 C333,515.5158 381.5,515.5158 381.5,525.5158 L381.5,553.5838 C381.5,563.5838 333,563.5838 333,563.5838 C333,563.5838 284.5,563.5838 284.5,553.5838 L284.5,525.5158 " fill="#FFF2CC" filter="url(#f1swtbaat0jji2)" style="stroke: #D6B656; stroke-width: 1.5;"/><path d="M284.5,525.5158 C284.5,535.5158 333,535.5158 333,535.5158 C333,535.5158 381.5,535.5158 381.5,525.5158 " fill="none" style="stroke: #D6B656; stroke-width: 1.5;"/><text fill="#000000" font-family="sans-serif" font-size="14" lengthAdjust="spacingAndGlyphs" textLength="77" x="294.5" y="554.4818">PostgreSQL</text><!--MD5=[de5dc476b5cd49b5a92d294ad2af7d70]
entity redis--><path d="M480.5,525.5158 C480.5,515.5158 509,515.5158 509,515.5158 C509,515.5158 537.5,515.5158 537.5,525.5158 L537.5,553.5838 C537.5,563.5838 509,563.5838 509,563.5838 C509,563.5838 480.5,563.5838 480.5,553.5838 L480.5,525.5158 " fill="#FFF2CC" filter="url(#f1swtbaat0jji2)" style="stroke: #D6B656; stroke-width: 1.5;"/><path d="M480.5,525.5158 C480.5,535.5158 509,535.5158 509,535.5158 C509,535.5158 537.5,535.5158 537.5,525.5158 " fill="none" style="stroke: #D6B656; stroke-width: 1.5;"/><text fill="#000000" font-family="sans-serif" font-size="14" lengthAdjust="spacingAndGlyphs" textLength="37" x="490.5" y="554.4818">Redis</text><!--MD5=[a29fe3b73bd7c5d5e80e6b5e6b2bebf6]
entity stripe--><rect fill="#DAE8FC" filter="url(#f1swtbaat0jji2)" height="49.9638" style="stroke: #6C8EBF; stroke-width: 1.5;" width="71" x="585.5" y="233.0158"/><text fill="#000000" font-family="sans-serif" font-size="11" lengthAdjust="spacingAndGlyphs" textLength="31" x="595.5" y="254.7748">Stripe</text><text fill="#000000" font-family="sans-serif" font-size="11" lengthAdjust="spacingAndGlyphs" textLength="51" x="595.5" y="269.7566">[External]</text><!--MD5=[19e020f949a5aa56cc64974312f33ca4]
link users to dbclient--><path d="M298.77,290.5258 C305.53,312.3458 314.55,341.4558 321.63,364.3158 " fill="none" id="users-&gt;dbclient" style="stroke: #A80036; stroke-width: 1.0;"/><polygon fill="#A80036" points="323.11,369.0958,324.2802,359.3168,321.6366,364.3179,316.6354,361.6743,323.11,369.0958" style="stroke: #A80036; stroke-width: 1.0;"/><text fill="#000000" font-family="sans-serif" font-size="13" lengthAdjust="spacingAndGlyphs" textLength="81" x="314" y="335.4129">users schema</text><!--MD5=[e5d8a0e4d963cfd4ecd35528be8c055c]
link catalog to dbclient--><path d="M447.82,290.5458 C435.18,305.8158 419.32,324.1158 404,339.5158 C395.06,348.4958 385.01,357.6958 375.35,366.1458 " fill="none" id="catalog-&gt;dbclient" style="stroke: #A80036; stroke-width: 1.0;"/><polygon fill="#A80036" points="371.52,369.4658,380.9397,366.5902,375.297,366.1896,375.6976,360.5469,371.52,369.4658" style="stroke: #A80036; stroke-width: 1.0;"/><text fill="#000000" font-family="sans-serif" font-size="13" lengthAdjust="spacingAndGlyphs" textLength="93" x="420" y="335.4129">catalog schema</text><!--MD5=[70f67455cb9b6e3131f4e0585894f3ee]
link catalog to redis--><path d="M504.76,290.6558 C511.79,299.5958 518.26,309.8158 522,320.5158 C544.73,385.5158 528.66,468.0058 517.41,510.4558 " fill="none" id="catalog-&gt;redis" style="stroke: #A80036; stroke-width: 1.0;"/><polygon fill="#A80036" points="516.07,515.4358,522.2722,507.7852,517.3699,510.6078,514.5473,505.7054,516.07,515.4358" style="stroke: #A80036; stroke-width: 1.0;"/><text fill="#000000" font-family="sans-serif" font-size="13" lengthAdjust="spacingAndGlyphs" textLength="68" x="534" y="407.4129">cache [TCP]</text><!--MD5=[a95a5551858c22da3e76d900f056d78d]
link orders to dbclient--><path d="M147.42,290.8858 C165.32,306.5758 188.01,325.1658 210,339.5158 C225.08,349.3558 241.95,358.7358 258.24,367.0658 " fill="none" id="orders-&gt;dbclient" style="stroke: #A80036; stroke-width: 1.0;"/><polygon fill="#A80036" points="262.82,369.3958,256.5881,361.7693,258.3565,367.1427,252.9831,368.911,262.82,369.3958" style="stroke: #A80036; stroke-width: 1.0;"/><text fill="#000000" font-family="sans-serif" font-size="13" lengthAdjust="spacingAndGlyphs" textLength="88" x="211" y="335.4129">orders schema</text><!--MD5=[c6472df471b326cbf86ef0e1ad3e17cf]
link orders to notif--><path d="M81.29,290.8358 C70.69,305.3658 63.11,322.9858 70,339.5158 C73.96,349.0158 80.18,357.8058 87.18,365.5858 " fill="none" id="orders-&gt;notif" style="stroke: #A80036; stroke-width: 1.0;"/><polygon fill="#A80036" points="90.67,369.3258,87.4521,360.0175,87.2579,365.671,81.6044,365.4769,90.67,369.3258" style="stroke: #A80036; stroke-width: 1.0;"/><text fill="#000000" font-family="sans-serif" font-size="13" lengthAdjust="spacingAndGlyphs" textLength="88" x="71" y="335.4129">enqueue email</text><!--MD5=[f2e9bf2da356184169e4e2bff0263b49]
link payment to stripe--><path d="M498.07,146.5258 C525.71,171.3758 563.87,205.6758 590.31,229.4358 " fill="none" id="payment-&gt;stripe" style="stroke: #A80036; stroke-width: 1.0;"/><polygon fill="#A80036" points="594.13,232.8658,590.0991,223.8797,590.4072,229.5281,584.7587,229.8362,594.13,232.8658" style="stroke: #A80036; stroke-width: 1.0;"/><text fill="#000000" font-family="sans-serif" font-size="13" lengthAdjust="spacingAndGlyphs" textLength="150" x="552" y="191.4129">Payment Intents [HTTPS]</text><!--MD5=[20dc44f964cb90efe8e4a9a999c905f2]
link payment to orders--><path d="M388.77,145.1258 C329.54,169.1658 246.93,202.6758 187.6,226.7458 " fill="none" id="payment-&gt;orders" style="stroke: #A80036; stroke-width: 1.0;"/><polygon fill="#A80036" points="182.65,228.7558,192.4932,229.0906,187.2854,226.8816,189.4944,221.6739,182.65,228.7558" style="stroke: #A80036; stroke-width: 1.0;"/><text fill="#000000" font-family="sans-serif" font-size="13" lengthAdjust="spacingAndGlyphs" textLength="124" x="309" y="191.4129">confirm on webhook</text><!--MD5=[4ca8d7a586ae69a70536e81afd9b00fd]
link notif to redis--><path d="M163.76,434.6858 C183.3,452.3458 209.75,473.1958 237,485.5158 C303.72,515.6758 327.16,501.3558 399,515.5158 C424.52,520.5458 453.29,526.5758 475.01,531.1958 " fill="none" id="notif-&gt;redis" style="stroke: #A80036; stroke-width: 1.0;"/><polygon fill="#A80036" points="480.09,532.2758,472.1233,526.4852,475.2002,531.2321,470.4533,534.309,480.09,532.2758" style="stroke: #A80036; stroke-width: 1.0;"/><text fill="#000000" font-family="sans-serif" font-size="13" lengthAdjust="spacingAndGlyphs" textLength="86" x="238" y="481.4129">push job [TCP]</text><!--MD5=[6b65906111b3195c3be7e3421353d345]
link dbclient to db--><path d="M333,434.7858 C333,457.6658 333,488.2658 333,510.2958 " fill="none" id="dbclient-&gt;db" style="stroke: #A80036; stroke-width: 1.0;"/><polygon fill="#A80036" points="333,515.4158,337,506.4158,333,510.4158,329,506.4158,333,515.4158" style="stroke: #A80036; stroke-width: 1.0;"/><text fill="#000000" font-family="sans-serif" font-size="13" lengthAdjust="spacingAndGlyphs" textLength="58" x="334" y="481.4129">SQL [TCP]</text><!--MD5=[1fb004b8e3643ef68165b7c413eceaff]
@startuml 05-components-api
title Component Diagram — API Server

skinparam rectangle {
  BackgroundColor #dae8fc
  BorderColor #6c8ebf
  FontSize 11
}
skinparam database {
  BackgroundColor #fff2cc
  BorderColor #d6b656
}

rectangle "API Server (Node.js + Express)" {
  rectangle "Users Router+Service\n[Express Router]\nRegistration, login, JWT" as users
  rectangle "Catalog Router+Service\n[Express Router]\nBook CRUD, search, cache" as catalog
  rectangle "Orders Router+Service\n[Express Router]\nCart, order lifecycle" as orders
  rectangle "Payment Router+Service\n[Express Router]\nStripe integration" as payment
  rectangle "Notifications Service\n[Bull Producer]\nEnqueues email jobs" as notif
  rectangle "Auth Middleware\n[Express Middleware]\nJWT validation" as auth
  rectangle "Error Handler\n[Express Middleware]\nCentralised errors" as errors
  rectangle "DB Client\n[node-postgres]\nShared connection pool" as dbclient
}

database "PostgreSQL" as db
database "Redis" as redis
rectangle "Stripe\n[External]" as stripe

users - -> dbclient : "users schema"
catalog - -> dbclient : "catalog schema"
catalog - -> redis : "cache [TCP]"
orders - -> dbclient : "orders schema"
orders - -> notif : "enqueue email"
payment - -> stripe : "Payment Intents [HTTPS]"
payment - -> orders : "confirm on webhook"
notif - -> redis : "push job [TCP]"
dbclient - -> db : "SQL [TCP]"

@enduml

PlantUML version 1.2020.02(Sun Mar 01 11:22:07 CET 2020)
(GPL source distribution)
Java Runtime: OpenJDK Runtime Environment
JVM: OpenJDK 64-Bit Server VM
Java Version: 21.0.10+7-Ubuntu-124.04
Operating System: Linux
Default Encoding: UTF-8
Language: en
Country: US
--></g></svg>