<?xml version="1.0" encoding="UTF-8" standalone="no"?><svg xmlns="http://www.w3.org/2000/svg" xmlns:xlink="http://www.w3.org/1999/xlink" contentScriptType="application/ecmascript" contentStyleType="text/css" height="789px" preserveAspectRatio="none" style="width:1077px;height:789px;" version="1.1" viewBox="0 0 1077 789" width="1077px" zoomAndPan="magnify"><defs><filter height="300%" id="f1f66qpmbdgsp0" width="300%" x="-1" y="-1"><feGaussianBlur result="blurOut" stdDeviation="2.0"/><feColorMatrix in="blurOut" result="blurOut2" type="matrix" values="0 0 0 0 0 0 0 0 0 0 0 0 0 0 0 0 0 0 .4 0"/><feOffset dx="4.0" dy="4.0" in="blurOut2" result="blurOut3"/><feBlend in="SourceGraphic" in2="blurOut3" mode="normal"/></filter></defs><g><text fill="#000000" font-family="sans-serif" font-size="18" lengthAdjust="spacingAndGlyphs" textLength="209" x="434.5" y="29.2419">Sequence — Place Order</text><line style="stroke: #A80036; stroke-width: 1.0; stroke-dasharray: 5.0,5.0;" x1="43" x2="43" y1="127.5838" y2="699.586"/><line style="stroke: #A80036; stroke-width: 1.0; stroke-dasharray: 5.0,5.0;" x1="194.5" x2="194.5" y1="127.5838" y2="699.586"/><line style="stroke: #A80036; stroke-width: 1.0; stroke-dasharray: 5.0,5.0;" x1="331.5" x2="331.5" y1="127.5838" y2="699.586"/><line style="stroke: #A80036; stroke-width: 1.0; stroke-dasharray: 5.0,5.0;" x1="466.5" x2="466.5" y1="127.5838" y2="699.586"/><line style="stroke: #A80036; stroke-width: 1.0; stroke-dasharray: 5.0,5.0;" x1="627" x2="627" y1="127.5838" y2="699.586"/><line style="stroke: #A80036; stroke-width: 1.0; stroke-dasharray: 5.0,5.0;" x1="778" x2="778" y1="127.5838" y2="699.586"/><line style="stroke: #A80036; stroke-width: 1.0; stroke-dasharray: 5.0,5.0;" x1="907" x2="907" y1="127.5838" y2="699.586"/><line style="stroke: #A80036; stroke-width: 1.0; stroke-dasharray: 5.0,5.0;" x1="980" x2="980" y1="127.5838" y2="699.586"/><line style="stroke: #A80036; stroke-width: 1.0; stroke-dasharray: 5.0,5.0;" x1="1041" x2="1041" y1="127.5838" y2="699.586"/><text fill="#000000" font-family="sans-serif" font-size="14" lengthAdjust="spacingAndGlyphs" textLength="65" x="8" y="123.4818">Customer</text><ellipse cx="43.5" cy="51.5158" fill="#FEFECE" filter="url(#f1f66qpmbdgsp0)" rx="8" ry="8" style="stroke: #A80036; stroke-width: 2.0;"/><path d="M43.5,59.5158 L43.5,86.5158 M30.5,67.5158 L56.5,67.5158 M43.5,86.5158 L30.5,101.5158 M43.5,86.5158 L56.5,101.5158 " fill="none" filter="url(#f1f66qpmbdgsp0)" style="stroke: #A80036; stroke-width: 2.0;"/><text fill="#000000" font-family="sans-serif" font-size="14" lengthAdjust="spacingAndGlyphs" textLength="65" x="8" y="713.552">Customer</text><ellipse cx="43.5" cy="727.654" fill="#FEFECE" filter="url(#f1f66qpmbdgsp0)" rx="8" ry="8" style="stroke: #A80036; stroke-width: 2.0;"/><path d="M43.5,735.654 L43.5,762.654 M30.5,743.654 L56.5,743.654 M43.5,762.654 L30.5,777.654 M43.5,762.654 L56.5,777.654 " fill="none" filter="url(#f1f66qpmbdgsp0)" style="stroke: #A80036; stroke-width: 2.0;"/><rect fill="#FEFECE" filter="url(#f1f66qpmbdgsp0)" height="33.0679" style="stroke: #A80036; stroke-width: 1.5;" width="80" x="152.5" y="89.5158"/><text fill="#000000" font-family="sans-serif" font-size="14" lengthAdjust="spacingAndGlyphs" textLength="66" x="159.5" y="111.4818">React SPA</text><rect fill="#FEFECE" filter="url(#f1f66qpmbdgsp0)" height="33.0679" style="stroke: #A80036; stroke-width: 1.5;" width="80" x="152.5" y="698.586"/><text fill="#000000" font-family="sans-serif" font-size="14" lengthAdjust="spacingAndGlyphs" textLength="66" x="159.5" y="720.552">React SPA</text><rect fill="#FEFECE" filter="url(#f1f66qpmbdgsp0)" height="33.0679" style="stroke: #A80036; stroke-width: 1.5;" width="130" x="264.5" y="89.5158"/><text fill="#000000" font-family="sans-serif" font-size="14" lengthAdjust="spacingAndGlyphs" textLength="116" x="271.5" y="111.4818">Auth Middleware</text><rect fill="#FEFECE" filter="url(#f1f66qpmbdgsp0)" height="33.0679" style="stroke: #A80036; stroke-width: 1.5;" width="130" x="264.5" y="698.586"/><text fill="#000000" font-family="sans-serif" font-size="14" lengthAdjust="spacingAndGlyphs" textLength="116" x="271.5" y="720.552">Auth Middleware</text><rect fill="#FEFECE" filter="url(#f1f66qpmbdgsp0)" height="33.0679" style="stroke: #A80036; stroke-width: 1.5;" width="113" x="408.5" y="89.5158"/><text fill="#000000" font-family="sans-serif" font-size="14" lengthAdjust="spacingAndGlyphs" textLength="99" x="415.5" y="111.4818">Orders Service</text><rect fill="#FEFECE" filter="url(#f1f66qpmbdgsp0)" height="33.0679" style="stroke: #A80036; stroke-width: 1.5;" width="113" x="408.5" y="698.586"/><text fill="#000000" font-family="sans-serif" font-size="14" lengthAdjust="spacingAndGlyphs" textLength="99" x="415.5" y="720.552">Orders Service</text><rect fill="#FEFECE" filter="url(#f1f66qpmbdgsp0)" height="33.0679" style="stroke: #A80036; stroke-width: 1.5;" width="124" x="563" y="89.5158"/><text fill="#000000" font-family="sans-serif" font-size="14" lengthAdjust="spacingAndGlyphs" textLength="110" x="570" y="111.4818">Payment Service</text><rect fill="#FEFECE" filter="url(#f1f66qpmbdgsp0)" height="33.0679" style="stroke: #A80036; stroke-width: 1.5;" width="124" x="563" y="698.586"/><text fill="#000000" font-family="sans-serif" font-size="14" lengthAdjust="spacingAndGlyphs" textLength="110" x="570" y="720.552">Payment Service</text><rect fill="#FEFECE" filter="url(#f1f66qpmbdgsp0)" height="33.0679" style="stroke: #A80036; stroke-width: 1.5;" width="151" x="701" y="89.5158"/><text fill="#000000" font-family="sans-serif" font-size="14" lengthAdjust="spacingAndGlyphs" textLength="137" x="708" y="111.4818">Notifications Service</text><rect fill="#FEFECE" filter="url(#f1f66qpmbdgsp0)" height="33.0679" style="stroke: #A80036; stroke-width: 1.5;" width="151" x="701" y="698.586"/><text fill="#000000" font-family="sans-serif" font-size="14" lengthAdjust="spacingAndGlyphs" textLength="137" x="708" y="720.552">Notifications Service</text><text fill="#000000" font-family="sans-serif" font-size="14" lengthAdjust="spacingAndGlyphs" textLength="77" x="866" y="123.4818">PostgreSQL</text><path d="M889.5,72.5158 C889.5,62.5158 907.5,62.5158 907.5,62.5158 C907.5,62.5158 925.5,62.5158 925.5,72.5158 L925.5,98.5158 C925.5,108.5158 907.5,108.5158 907.5,108.5158 C907.5,108.5158 889.5,108.5158 889.5,98.5158 L889.5,72.5158 " fill="#FEFECE" filter="url(#f1f66qpmbdgsp0)" style="stroke: #000000; stroke-width: 1.5;"/><path d="M889.5,72.5158 C889.5,82.5158 907.5,82.5158 907.5,82.5158 C907.5,82.5158 925.5,82.5158 925.5,72.5158 " fill="none" style="stroke: #000000; stroke-width: 1.5;"/><text fill="#000000" font-family="sans-serif" font-size="14" lengthAdjust="spacingAndGlyphs" textLength="77" x="866" y="713.552">PostgreSQL</text><path d="M889.5,727.654 C889.5,717.654 907.5,717.654 907.5,717.654 C907.5,717.654 925.5,717.654 925.5,727.654 L925.5,753.654 C925.5,763.654 907.5,763.654 907.5,763.654 C907.5,763.654 889.5,763.654 889.5,753.654 L889.5,727.654 " fill="#FEFECE" filter="url(#f1f66qpmbdgsp0)" style="stroke: #000000; stroke-width: 1.5;"/><path d="M889.5,727.654 C889.5,737.654 907.5,737.654 907.5,737.654 C907.5,737.654 925.5,737.654 925.5,727.654 " fill="none" style="stroke: #000000; stroke-width: 1.5;"/><text fill="#000000" font-family="sans-serif" font-size="14" lengthAdjust="spacingAndGlyphs" textLength="37" x="959" y="123.4818">Redis</text><path d="M962.5,72.5158 C962.5,62.5158 980.5,62.5158 980.5,62.5158 C980.5,62.5158 998.5,62.5158 998.5,72.5158 L998.5,98.5158 C998.5,108.5158 980.5,108.5158 980.5,108.5158 C980.5,108.5158 962.5,108.5158 962.5,98.5158 L962.5,72.5158 " fill="#FEFECE" filter="url(#f1f66qpmbdgsp0)" style="stroke: #000000; stroke-width: 1.5;"/><path d="M962.5,72.5158 C962.5,82.5158 980.5,82.5158 980.5,82.5158 C980.5,82.5158 998.5,82.5158 998.5,72.5158 " fill="none" style="stroke: #000000; stroke-width: 1.5;"/><text fill="#000000" font-family="sans-serif" font-size="14" lengthAdjust="spacingAndGlyphs" textLength="37" x="959" y="713.552">Redis</text><path d="M962.5,727.654 C962.5,717.654 980.5,717.654 980.5,717.654 C980.5,717.654 998.5,717.654 998.5,727.654 L998.5,753.654 C998.5,763.654 980.5,763.654 980.5,763.654 C980.5,763.654 962.5,763.654 962.5,753.654 L962.5,727.654 " fill="#FEFECE" filter="url(#f1f66qpmbdgsp0)" style="stroke: #000000; stroke-width: 1.5;"/><path d="M962.5,727.654 C962.5,737.654 980.5,737.654 980.5,737.654 C980.5,737.654 998.5,737.654 998.5,727.654 " fill="none" style="stroke: #000000; stroke-width: 1.5;"/><rect fill="#FEFECE" filter="url(#f1f66qpmbdgsp0)" height="33.0679" style="stroke: #A80036; stroke-width: 1.5;" width="54" x="1012" y="89.5158"/><text fill="#000000" font-family="sans-serif" font-size="14" lengthAdjust="spacingAndGlyphs" textLength="40" x="1019" y="111.4818">Stripe</text><rect fill="#FEFECE" filter="url(#f1f66qpmbdgsp0)" height="33.0679" style="stroke: #A80036; stroke-width: 1.5;" width="54" x="1012" y="698.586"/><text fill="#000000" font-family="sans-serif" font-size="14" lengthAdjust="spacingAndGlyphs" textLength="40" x="1019" y="720.552">Stripe</text><polygon fill="#A80036" points="182.5,157.2898,192.5,161.2898,182.5,165.2898,186.5,161.2898" style="stroke: #A80036; stroke-width: 1.0;"/><line style="stroke: #A80036; stroke-width: 1.0;" x1="43.5" x2="188.5" y1="161.2898" y2="161.2898"/><text fill="#000000" font-family="sans-serif" font-size="13" lengthAdjust="spacingAndGlyphs" textLength="127" x="50.5" y="155.4808">Submit cart checkout</text><polygon fill="#A80036" points="319.5,188.9958,329.5,192.9958,319.5,196.9958,323.5,192.9958" style="stroke: #A80036; stroke-width: 1.0;"/><line style="stroke: #A80036; stroke-width: 1.0;" x1="194.5" x2="325.5" y1="192.9958" y2="192.9958"/><text fill="#000000" font-family="sans-serif" font-size="13" lengthAdjust="spacingAndGlyphs" textLength="113" x="201.5" y="187.1868">POST /orders (JWT)</text><line style="stroke: #A80036; stroke-width: 1.0;" x1="331.5" x2="373.5" y1="224.7018" y2="224.7018"/><line style="stroke: #A80036; stroke-width: 1.0;" x1="373.5" x2="373.5" y1="224.7018" y2="237.7018"/><line style="stroke: #A80036; stroke-width: 1.0;" x1="332.5" x2="373.5" y1="237.7018" y2="237.7018"/><polygon fill="#A80036" points="342.5,233.7018,332.5,237.7018,342.5,241.7018,338.5,237.7018" style="stroke: #A80036; stroke-width: 1.0;"/><text fill="#000000" font-family="sans-serif" font-size="13" lengthAdjust="spacingAndGlyphs" textLength="74" x="338.5" y="218.8928">Validate JWT</text><polygon fill="#A80036" points="455,265.4078,465,269.4078,455,273.4078,459,269.4078" style="stroke: #A80036; stroke-width: 1.0;"/><line style="stroke: #A80036; stroke-width: 1.0;" x1="331.5" x2="461" y1="269.4078" y2="269.4078"/><text fill="#000000" font-family="sans-serif" font-size="13" lengthAdjust="spacingAndGlyphs" textLength="99" x="338.5" y="263.5988">Forward request</text><polygon fill="#A80036" points="895.5,297.1138,905.5,301.1138,895.5,305.1138,899.5,301.1138" style="stroke: #A80036; stroke-width: 1.0;"/><line style="stroke: #A80036; stroke-width: 1.0;" x1="467" x2="901.5" y1="301.1138" y2="301.1138"/><text fill="#000000" font-family="sans-serif" font-size="13" lengthAdjust="spacingAndGlyphs" textLength="109" x="474" y="295.3048">BEGIN transaction</text><polygon fill="#A80036" points="895.5,328.8199,905.5,332.8199,895.5,336.8199,899.5,332.8199" style="stroke: #A80036; stroke-width: 1.0;"/><line style="stroke: #A80036; stroke-width: 1.0;" x1="467" x2="901.5" y1="332.8199" y2="332.8199"/><text fill="#000000" font-family="sans-serif" font-size="13" lengthAdjust="spacingAndGlyphs" textLength="158" x="474" y="327.0109">SELECT stock FOR UPDATE</text><polygon fill="#A80036" points="895.5,360.5259,905.5,364.5259,895.5,368.5259,899.5,364.5259" style="stroke: #A80036; stroke-width: 1.0;"/><line style="stroke: #A80036; stroke-width: 1.0;" x1="467" x2="901.5" y1="364.5259" y2="364.5259"/><text fill="#000000" font-family="sans-serif" font-size="13" lengthAdjust="spacingAndGlyphs" textLength="101" x="474" y="358.7169">Decrement stock</text><polygon fill="#A80036" points="895.5,392.2319,905.5,396.2319,895.5,400.2319,899.5,396.2319" style="stroke: #A80036; stroke-width: 1.0;"/><line style="stroke: #A80036; stroke-width: 1.0;" x1="467" x2="901.5" y1="396.2319" y2="396.2319"/><text fill="#000000" font-family="sans-serif" font-size="13" lengthAdjust="spacingAndGlyphs" textLength="147" x="474" y="390.4229">INSERT order (PENDING)</text><polygon fill="#A80036" points="895.5,423.9379,905.5,427.9379,895.5,431.9379,899.5,427.9379" style="stroke: #A80036; stroke-width: 1.0;"/><line style="stroke: #A80036; stroke-width: 1.0;" x1="467" x2="901.5" y1="427.9379" y2="427.9379"/><text fill="#000000" font-family="sans-serif" font-size="13" lengthAdjust="spacingAndGlyphs" textLength="53" x="474" y="422.1289">COMMIT</text><polygon fill="#A80036" points="766.5,455.6439,776.5,459.6439,766.5,463.6439,770.5,459.6439" style="stroke: #A80036; stroke-width: 1.0;"/><line style="stroke: #A80036; stroke-width: 1.0;" x1="467" x2="772.5" y1="459.6439" y2="459.6439"/><text fill="#000000" font-family="sans-serif" font-size="13" lengthAdjust="spacingAndGlyphs" textLength="187" x="474" y="453.8349">Enqueue "order received" email</text><polygon fill="#A80036" points="968.5,487.3499,978.5,491.3499,968.5,495.3499,972.5,491.3499" style="stroke: #A80036; stroke-width: 1.0;"/><line style="stroke: #A80036; stroke-width: 1.0;" x1="778.5" x2="974.5" y1="491.3499" y2="491.3499"/><text fill="#000000" font-family="sans-serif" font-size="13" lengthAdjust="spacingAndGlyphs" textLength="99" x="785.5" y="485.5409">LPUSH email job</text><polygon fill="#A80036" points="615,519.056,625,523.056,615,527.056,619,523.056" style="stroke: #A80036; stroke-width: 1.0;"/><line style="stroke: #A80036; stroke-width: 1.0;" x1="467" x2="621" y1="523.056" y2="523.056"/><text fill="#000000" font-family="sans-serif" font-size="13" lengthAdjust="spacingAndGlyphs" textLength="136" x="474" y="517.247">Create Payment Intent</text><polygon fill="#A80036" points="1029,550.762,1039,554.762,1029,558.762,1033,554.762" style="stroke: #A80036; stroke-width: 1.0;"/><line style="stroke: #A80036; stroke-width: 1.0;" x1="627" x2="1035" y1="554.762" y2="554.762"/><text fill="#000000" font-family="sans-serif" font-size="13" lengthAdjust="spacingAndGlyphs" textLength="142" x="634" y="548.953">POST /payment_intents</text><polygon fill="#A80036" points="638,582.468,628,586.468,638,590.468,634,586.468" style="stroke: #A80036; stroke-width: 1.0;"/><line style="stroke: #A80036; stroke-width: 1.0; stroke-dasharray: 2.0,2.0;" x1="632" x2="1040" y1="586.468" y2="586.468"/><text fill="#000000" font-family="sans-serif" font-size="13" lengthAdjust="spacingAndGlyphs" textLength="90" x="644" y="580.659">{ client_secret }</text><polygon fill="#A80036" points="478,614.174,468,618.174,478,622.174,474,618.174" style="stroke: #A80036; stroke-width: 1.0;"/><line style="stroke: #A80036; stroke-width: 1.0; stroke-dasharray: 2.0,2.0;" x1="472" x2="626" y1="618.174" y2="618.174"/><text fill="#000000" font-family="sans-serif" font-size="13" lengthAdjust="spacingAndGlyphs" textLength="74" x="484" y="612.365">client_secret</text><polygon fill="#A80036" points="205.5,645.88,195.5,649.88,205.5,653.88,201.5,649.88" style="stroke: #A80036; stroke-width: 1.0;"/><line style="stroke: #A80036; stroke-width: 1.0; stroke-dasharray: 2.0,2.0;" x1="199.5" x2="466" y1="649.88" y2="649.88"/><text fill="#000000" font-family="sans-serif" font-size="13" lengthAdjust="spacingAndGlyphs" textLength="141" x="211.5" y="644.071">{ orderId, client_secret }</text><polygon fill="#A80036" points="1029,677.586,1039,681.586,1029,685.586,1033,681.586" style="stroke: #A80036; stroke-width: 1.0;"/><line style="stroke: #A80036; stroke-width: 1.0;" x1="194.5" x2="1035" y1="681.586" y2="681.586"/><text fill="#000000" font-family="sans-serif" font-size="13" lengthAdjust="spacingAndGlyphs" textLength="176" x="201.5" y="675.777">Confirm payment (client-side)</text><!--MD5=[62bbadce75964fb7d379f5f9729c6597]
@startuml 06-seq-place-order
title Sequence — Place Order

actor Customer
participant "React SPA" as SPA
participant "Auth Middleware" as Auth
participant "Orders Service" as Orders
participant "Payment Service" as Payment
participant "Notifications Service" as Notif
database PostgreSQL
database Redis
participant Stripe

Customer -> SPA: Submit cart checkout
SPA -> Auth: POST /orders (JWT)
Auth -> Auth: Validate JWT
Auth -> Orders: Forward request

Orders -> PostgreSQL: BEGIN transaction
Orders -> PostgreSQL: SELECT stock FOR UPDATE
Orders -> PostgreSQL: Decrement stock
Orders -> PostgreSQL: INSERT order (PENDING)
Orders -> PostgreSQL: COMMIT

Orders -> Notif: Enqueue "order received" email
Notif -> Redis: LPUSH email job

Orders -> Payment: Create Payment Intent
Payment -> Stripe: POST /payment_intents
Stripe - -> Payment: { client_secret }
Payment - -> Orders: client_secret
Orders - -> SPA: { orderId, client_secret }

SPA -> Stripe: Confirm payment (client-side)
@enduml

PlantUML version 1.2020.02(Sun Mar 01 11:22:07 CET 2020)
(GPL source distribution)
Java Runtime: OpenJDK Runtime Environment
JVM: OpenJDK 64-Bit Server VM
Java Version: 21.0.10+7-Ubuntu-124.04
Operating System: Linux
Default Encoding: UTF-8
Language: en
Country: US
--></g></svg>